# Wavefront OBJ file automatically generated by Tiled2Unity

# Vertices (Count = 117)
v -176 -16 0
v -192 -16 0
v -192 0 0
v -176 0 0
v -160 -16 0
v -160 0 0
v -144 -16 0
v -144 0 0
v -128 -16 0
v -128 0 0
v -112 -16 0
v -112 0 0
v -96 -16 0
v -96 0 0
v -80 -16 0
v -80 0 0
v -64 -16 0
v -64 0 0
v -48 -16 0
v -48 0 0
v -32 -16 0
v -32 0 0
v -16 -16 0
v -16 0 0
v 0 -16 0
v 0 0 0
v -176 -32 0
v -192 -32 0
v -160 -32 0
v -144 -32 0
v -128 -32 0
v -112 -32 0
v -96 -32 0
v -80 -32 0
v -64 -32 0
v -48 -32 0
v -32 -32 0
v -16 -32 0
v 0 -32 0
v -176 -48 0
v -192 -48 0
v -160 -48 0
v -144 -48 0
v -128 -48 0
v -96 -48 0
v -112 -48 0
v -80 -48 0
v -64 -48 0
v -48 -48 0
v -32 -48 0
v -16 -48 0
v 0 -48 0
v -176 -64 0
v -192 -64 0
v -160 -64 0
v -144 -64 0
v -128 -64 0
v -112 -64 0
v -96 -64 0
v -80 -64 0
v -64 -64 0
v -48 -64 0
v -32 -64 0
v -16 -64 0
v 0 -64 0
v -144 -96 0
v -160 -96 0
v -160 -80 0
v -144 -80 0
v -128 -96 0
v -128 -80 0
v -112 -96 0
v -112 -80 0
v -96 -96 0
v -96 -80 0
v -80 -96 0
v -80 -80 0
v -64 -96 0
v -64 -80 0
v -48 -96 0
v -48 -80 0
v -32 -96 0
v -32 -80 0
v -144 -112 0
v -160 -112 0
v -128 -112 0
v -112 -112 0
v -96 -112 0
v -80 -112 0
v -64 -112 0
v -48 -112 0
v -32 -112 0
v -144 -128 0
v -160 -128 0
v -128 -128 0
v -112 -128 0
v -96 -128 0
v -80 -128 0
v -48 -128 0
v -64 -128 0
v -32 -128 0
v -176 -80 0
v -192 -80 0
v -16 -80 0
v 0 -80 0
v -176 -96 0
v -192 -96 0
v -16 -96 0
v 0 -96 0
v -176 -112 0
v -192 -112 0
v -16 -112 0
v 0 -112 0
v -176 -128 0
v -192 -128 0
v -16 -128 0
v 0 -128 0

# Texture cooridinates (Count = 30)
vt 0.6801221 0.6801221
vt 0.9998779 0.6801221
vt 0.9998779 0.9998779
vt 0.6801221 0.9998779
vt 0.3401221 0.6801221
vt 0.659878 0.6801221
vt 0.659878 0.9998779
vt 0.3401221 0.9998779
vt 0.0001220703 0.6801221
vt 0.3198779 0.6801221
vt 0.3198779 0.9998779
vt 0.0001220703 0.9998779
vt 0.6801221 0.3401221
vt 0.9998779 0.3401221
vt 0.9998779 0.659878
vt 0.6801221 0.659878
vt 0.3401221 0.3401221
vt 0.659878 0.3401221
vt 0.659878 0.659878
vt 0.3401221 0.659878
vt 0.0001220703 0.3401221
vt 0.3198779 0.3401221
vt 0.3198779 0.659878
vt 0.0001220703 0.659878
vt 0.3401221 0.0001220703
vt 0.659878 0.0001220703
vt 0.659878 0.3198779
vt 0.3401221 0.3198779
vt 0.0001220703 0.0001220703
vt 0.9998779 0.0001220703

# Normal
vn 0 0 -1

# Groups (Count = 1)

g mesh_0001
f 1/1/1 2/2/1 3/3/1 4/4/1
f 5/5/1 1/6/1 4/7/1 6/8/1
f 7/5/1 5/6/1 6/7/1 8/8/1
f 9/5/1 7/6/1 8/7/1 10/8/1
f 11/5/1 9/6/1 10/7/1 12/8/1
f 13/5/1 11/6/1 12/7/1 14/8/1
f 15/5/1 13/6/1 14/7/1 16/8/1
f 17/5/1 15/6/1 16/7/1 18/8/1
f 19/5/1 17/6/1 18/7/1 20/8/1
f 21/5/1 19/6/1 20/7/1 22/8/1
f 23/5/1 21/6/1 22/7/1 24/8/1
f 25/9/1 23/10/1 24/11/1 26/12/1
f 27/13/1 28/14/1 2/15/1 1/16/1
f 29/17/1 27/18/1 1/19/1 5/20/1
f 30/17/1 29/18/1 5/19/1 7/20/1
f 31/17/1 30/18/1 7/19/1 9/20/1
f 32/17/1 31/18/1 9/19/1 11/20/1
f 33/17/1 32/18/1 11/19/1 13/20/1
f 34/17/1 33/18/1 13/19/1 15/20/1
f 35/17/1 34/18/1 15/19/1 17/20/1
f 36/17/1 35/18/1 17/19/1 19/20/1
f 37/17/1 36/18/1 19/19/1 21/20/1
f 38/17/1 37/18/1 21/19/1 23/20/1
f 39/21/1 38/22/1 23/23/1 25/24/1
f 40/13/1 41/14/1 28/15/1 27/16/1
f 42/17/1 40/18/1 27/19/1 29/20/1
f 43/17/1 42/18/1 29/19/1 30/20/1
f 44/17/1 43/18/1 30/19/1 31/20/1
f 45/17/1 46/18/1 32/19/1 33/20/1
f 47/17/1 45/18/1 33/19/1 34/20/1
f 48/17/1 47/18/1 34/19/1 35/20/1
f 49/17/1 48/18/1 35/19/1 36/20/1
f 50/17/1 49/18/1 36/19/1 37/20/1
f 51/17/1 50/18/1 37/19/1 38/20/1
f 52/21/1 51/22/1 38/23/1 39/24/1
f 53/5/1 54/6/1 41/7/1 40/8/1
f 55/5/1 53/6/1 40/7/1 42/8/1
f 56/9/1 55/10/1 42/11/1 43/12/1
f 57/17/1 56/18/1 43/19/1 44/20/1
f 58/17/1 57/18/1 44/19/1 46/20/1
f 59/17/1 58/18/1 46/19/1 45/20/1
f 60/17/1 59/18/1 45/19/1 47/20/1
f 61/17/1 60/18/1 47/19/1 48/20/1
f 62/17/1 61/18/1 48/19/1 49/20/1
f 63/1/1 62/2/1 49/3/1 50/4/1
f 64/5/1 63/6/1 50/7/1 51/8/1
f 65/5/1 64/6/1 51/7/1 52/8/1
f 66/21/1 67/22/1 68/23/1 69/24/1
f 70/17/1 66/18/1 69/19/1 71/20/1
f 72/17/1 70/18/1 71/19/1 73/20/1
f 74/17/1 72/18/1 73/19/1 75/20/1
f 76/17/1 74/18/1 75/19/1 77/20/1
f 78/17/1 76/18/1 77/19/1 79/20/1
f 80/17/1 78/18/1 79/19/1 81/20/1
f 82/13/1 80/14/1 81/15/1 83/16/1
f 84/21/1 85/22/1 67/23/1 66/24/1
f 86/17/1 84/18/1 66/19/1 70/20/1
f 87/17/1 86/18/1 70/19/1 72/20/1
f 88/17/1 87/18/1 72/19/1 74/20/1
f 89/17/1 88/18/1 74/19/1 76/20/1
f 90/17/1 89/18/1 76/19/1 78/20/1
f 91/17/1 90/18/1 78/19/1 80/20/1
f 92/13/1 91/14/1 80/15/1 82/16/1
f 93/21/1 94/22/1 85/23/1 84/24/1
f 95/25/1 93/26/1 84/27/1 86/28/1
f 96/25/1 95/26/1 86/27/1 87/28/1
f 97/25/1 96/26/1 87/27/1 88/28/1
f 98/25/1 97/26/1 88/27/1 89/28/1
f 99/25/1 100/26/1 90/27/1 91/28/1
f 101/13/1 99/14/1 91/15/1 92/16/1

g mesh_0002
f 46/29/1 44/30/1 31/3/1 32/12/1

g mesh_0003
f 102/29/1 103/30/1 54/3/1 53/12/1
f 68/29/1 102/30/1 53/3/1 55/12/1
f 104/29/1 83/30/1 63/3/1 64/12/1
f 105/29/1 104/30/1 64/3/1 65/12/1
f 106/29/1 107/30/1 103/3/1 102/12/1
f 67/29/1 106/30/1 102/3/1 68/12/1
f 108/29/1 82/30/1 83/3/1 104/12/1
f 109/29/1 108/30/1 104/3/1 105/12/1
f 110/29/1 111/30/1 107/3/1 106/12/1
f 85/29/1 110/30/1 106/3/1 67/12/1
f 112/29/1 92/30/1 82/3/1 108/12/1
f 113/29/1 112/30/1 108/3/1 109/12/1
f 114/29/1 115/30/1 111/3/1 110/12/1
f 94/29/1 114/30/1 110/3/1 85/12/1
f 116/29/1 101/30/1 92/3/1 112/12/1
f 117/29/1 116/30/1 112/3/1 113/12/1

g mesh_0004
f 69/29/1 68/30/1 55/3/1 56/12/1
f 71/29/1 69/30/1 56/3/1 57/12/1
f 73/29/1 71/30/1 57/3/1 58/12/1
f 75/29/1 73/30/1 58/3/1 59/12/1
f 77/29/1 75/30/1 59/3/1 60/12/1
f 79/29/1 77/30/1 60/3/1 61/12/1
f 81/29/1 79/30/1 61/3/1 62/12/1
f 83/29/1 81/30/1 62/3/1 63/12/1

g mesh_0005
f 100/29/1 98/30/1 89/3/1 90/12/1

