# Wavefront OBJ file automatically generated by Tiled2Unity

# Vertices (Count = 81)
v -144 -16 0
v -160 -16 0
v -160 0 0
v -144 0 0
v -128 -16 0
v -128 0 0
v -112 -16 0
v -112 0 0
v -96 -16 0
v -96 0 0
v -80 -16 0
v -80 0 0
v -64 -16 0
v -64 0 0
v -48 -16 0
v -48 0 0
v -32 -16 0
v -32 0 0
v -144 -32 0
v -160 -32 0
v -128 -32 0
v -112 -32 0
v -96 -32 0
v -80 -32 0
v -64 -32 0
v -48 -32 0
v -32 -32 0
v -144 -48 0
v -160 -48 0
v -128 -48 0
v -112 -48 0
v -96 -48 0
v -80 -48 0
v -48 -48 0
v -64 -48 0
v -32 -48 0
v -144 -64 0
v -160 -64 0
v -128 -64 0
v -112 -64 0
v -48 -64 0
v -64 -64 0
v -32 -64 0
v -144 -80 0
v -160 -80 0
v -128 -80 0
v -112 -80 0
v -64 -80 0
v -80 -80 0
v -80 -64 0
v -48 -80 0
v -32 -80 0
v -144 -96 0
v -160 -96 0
v -128 -96 0
v -112 -96 0
v -64 -96 0
v -80 -96 0
v -48 -96 0
v -32 -96 0
v -144 -112 0
v -160 -112 0
v -128 -112 0
v -112 -112 0
v -96 -112 0
v -96 -96 0
v -80 -112 0
v -64 -112 0
v -48 -112 0
v -32 -112 0
v -144 -128 0
v -160 -128 0
v -128 -128 0
v -112 -128 0
v -96 -128 0
v -80 -128 0
v -64 -128 0
v -48 -128 0
v -32 -128 0
v -96 -64 0
v -96 -80 0

# Texture cooridinates (Count = 36)
vt 0.6801221 0.6801221
vt 0.9998779 0.6801221
vt 0.9998779 0.9998779
vt 0.6801221 0.9998779
vt 0.3401221 0.6801221
vt 0.659878 0.6801221
vt 0.659878 0.9998779
vt 0.3401221 0.9998779
vt 0.0001220703 0.6801221
vt 0.3198779 0.6801221
vt 0.3198779 0.9998779
vt 0.0001220703 0.9998779
vt 0.6801221 0.3401221
vt 0.9998779 0.3401221
vt 0.9998779 0.659878
vt 0.6801221 0.659878
vt 0.3401221 0.3401221
vt 0.659878 0.3401221
vt 0.659878 0.659878
vt 0.3401221 0.659878
vt 0.0001220703 0.3401221
vt 0.3198779 0.3401221
vt 0.3198779 0.659878
vt 0.0001220703 0.659878
vt 0.6801221 0.0001220703
vt 0.9998779 0.0001220703
vt 0.9998779 0.3198779
vt 0.6801221 0.3198779
vt 0.3401221 0.0001220703
vt 0.659878 0.0001220703
vt 0.659878 0.3198779
vt 0.3401221 0.3198779
vt 0.0001220703 0.0001220703
vt 0.3198779 0.0001220703
vt 0.3198779 0.3198779
vt 0.0001220703 0.3198779

# Normal
vn 0 0 -1

# Groups (Count = 1)

g mesh_0001
f 1/1/1 2/2/1 3/3/1 4/4/1
f 5/5/1 1/6/1 4/7/1 6/8/1
f 7/5/1 5/6/1 6/7/1 8/8/1
f 9/5/1 7/6/1 8/7/1 10/8/1
f 11/5/1 9/6/1 10/7/1 12/8/1
f 13/5/1 11/6/1 12/7/1 14/8/1
f 15/5/1 13/6/1 14/7/1 16/8/1
f 17/9/1 15/10/1 16/11/1 18/12/1
f 19/13/1 20/14/1 2/15/1 1/16/1
f 21/17/1 19/18/1 1/19/1 5/20/1
f 22/17/1 21/18/1 5/19/1 7/20/1
f 23/17/1 22/18/1 7/19/1 9/20/1
f 24/17/1 23/18/1 9/19/1 11/20/1
f 25/17/1 24/18/1 11/19/1 13/20/1
f 26/17/1 25/18/1 13/19/1 15/20/1
f 27/21/1 26/22/1 15/23/1 17/24/1
f 28/13/1 29/14/1 20/15/1 19/16/1
f 30/17/1 28/18/1 19/19/1 21/20/1
f 31/17/1 30/18/1 21/19/1 22/20/1
f 32/17/1 31/18/1 22/19/1 23/20/1
f 33/17/1 32/18/1 23/19/1 24/20/1
f 34/17/1 35/18/1 25/19/1 26/20/1
f 36/21/1 34/22/1 26/23/1 27/24/1
f 37/13/1 38/14/1 29/15/1 28/16/1
f 39/17/1 37/18/1 28/19/1 30/20/1
f 40/17/1 39/18/1 30/19/1 31/20/1
f 41/17/1 42/18/1 35/19/1 34/20/1
f 43/21/1 41/22/1 34/23/1 36/24/1
f 44/13/1 45/14/1 38/15/1 37/16/1
f 46/17/1 44/18/1 37/19/1 39/20/1
f 47/17/1 46/18/1 39/19/1 40/20/1
f 48/17/1 49/18/1 50/19/1 42/20/1
f 51/17/1 48/18/1 42/19/1 41/20/1
f 52/21/1 51/22/1 41/23/1 43/24/1
f 53/13/1 54/14/1 45/15/1 44/16/1
f 55/17/1 53/18/1 44/19/1 46/20/1
f 56/17/1 55/18/1 46/19/1 47/20/1
f 57/17/1 58/18/1 49/19/1 48/20/1
f 59/17/1 57/18/1 48/19/1 51/20/1
f 60/21/1 59/22/1 51/23/1 52/24/1
f 61/13/1 62/14/1 54/15/1 53/16/1
f 63/17/1 61/18/1 53/19/1 55/20/1
f 64/17/1 63/18/1 55/19/1 56/20/1
f 65/17/1 64/18/1 56/19/1 66/20/1
f 67/17/1 65/18/1 66/19/1 58/20/1
f 68/17/1 67/18/1 58/19/1 57/20/1
f 69/17/1 68/18/1 57/19/1 59/20/1
f 70/21/1 69/22/1 59/23/1 60/24/1
f 71/25/1 72/26/1 62/27/1 61/28/1
f 73/29/1 71/30/1 61/31/1 63/32/1
f 74/29/1 73/30/1 63/31/1 64/32/1
f 75/29/1 74/30/1 64/31/1 65/32/1
f 76/29/1 75/30/1 65/31/1 67/32/1
f 77/29/1 76/30/1 67/31/1 68/32/1
f 78/29/1 77/30/1 68/31/1 69/32/1
f 79/33/1 78/34/1 69/35/1 70/36/1

g mesh_0002
f 35/33/1 33/26/1 24/3/1 25/12/1
f 80/33/1 40/26/1 31/3/1 32/12/1
f 50/33/1 80/26/1 32/3/1 33/12/1
f 42/33/1 50/26/1 33/3/1 35/12/1
f 81/33/1 47/26/1 40/3/1 80/12/1
f 49/33/1 81/26/1 80/3/1 50/12/1
f 66/33/1 56/26/1 47/3/1 81/12/1
f 58/33/1 66/26/1 81/3/1 49/12/1

